HIERARCHY
ROOT Hips
{
	OFFSET 0.000000 0.000000 0.000000
	CHANNELS 6 Xposition Yposition Zposition Xrotation Yrotation Zrotation
	JOINT Chest
	{
		OFFSET 0.000000 0.009282 11.569106
		CHANNELS 3 Xrotation Yrotation Zrotation
		JOINT Chest2
		{
			OFFSET 0.000000 -0.016863 9.269641
			CHANNELS 3 Xrotation Yrotation Zrotation
			JOINT Chest3
			{
				OFFSET 0.000000 -0.000000 8.374491
				CHANNELS 3 Xrotation Yrotation Zrotation
				JOINT Chest4
				{
					OFFSET 0.000000 -0.000000 8.374493
					CHANNELS 3 Xrotation Yrotation Zrotation
					JOINT Neck
					{
						OFFSET 0.000000 -0.000001 12.152554
						CHANNELS 3 Xrotation Yrotation Zrotation
						JOINT Head
						{
							OFFSET 0.000000 -0.040100 7.802319
							CHANNELS 3 Xrotation Yrotation Zrotation
							End Site
							{
								OFFSET 0.000000 -0.020946 14.853096
							}
						}
					}
					JOINT RightCollar
					{
						OFFSET -2.894404 -0.000000 6.791374
						CHANNELS 3 Xrotation Yrotation Zrotation
						JOINT RightShoulder
						{
							OFFSET -13.574684 0.000000 0.000000
							CHANNELS 3 Xrotation Yrotation Zrotation
							JOINT RightElbow
							{
								OFFSET -23.923903 0.000000 0.000000
								CHANNELS 3 Xrotation Yrotation Zrotation
								JOINT RightWrist
								{
									OFFSET -19.846718 -0.012765 0.000000
									CHANNELS 3 Xrotation Yrotation Zrotation
									End Site
									{
										OFFSET -14.973145 0.000000 0.000000
									}
								}
							}
						}
					}
					JOINT LeftCollar
					{
						OFFSET 2.894404 -0.000000 6.791374
						CHANNELS 3 Xrotation Yrotation Zrotation
						JOINT LeftShoulder
						{
							OFFSET 13.574684 0.000000 0.000000
							CHANNELS 3 Xrotation Yrotation Zrotation
							JOINT LeftElbow
							{
								OFFSET 23.923903 0.000000 0.000000
								CHANNELS 3 Xrotation Yrotation Zrotation
								JOINT LeftWrist
								{
									OFFSET 19.846718 -0.012765 0.000000
									CHANNELS 3 Xrotation Yrotation Zrotation
									End Site
									{
										OFFSET 14.973145 0.000000 0.000000
									}
								}
							}
						}
					}
				}
			}
		}
	}
	JOINT RightHip
	{
		OFFSET -9.469263 -0.004642 0.045487
		CHANNELS 3 Xrotation Yrotation Zrotation
		JOINT RightKnee
		{
			OFFSET 0.000000 -0.002666 -40.478676
			CHANNELS 3 Xrotation Yrotation Zrotation
			JOINT RightAnkle
			{
				OFFSET 0.000000 -0.049110 -35.224068
				CHANNELS 3 Xrotation Yrotation Zrotation
				JOINT RightToe
				{
					OFFSET 0.000000 -12.539530 -6.151390
					CHANNELS 3 Xrotation Yrotation Zrotation
					End Site
					{
						OFFSET 0.000000 -5.044995 -1.291870
					}
				}
			}
		}
	}
	JOINT LeftHip
	{
		OFFSET 9.469263 -0.004642 0.045487
		CHANNELS 3 Xrotation Yrotation Zrotation
		JOINT LeftKnee
		{
			OFFSET 0.000000 -0.002666 -40.478676
			CHANNELS 3 Xrotation Yrotation Zrotation
			JOINT LeftAnkle
			{
				OFFSET 0.000000 -0.049110 -35.224068
				CHANNELS 3 Xrotation Yrotation Zrotation
				JOINT LeftToe
				{
					OFFSET 0.000000 -12.539530 -6.151390
					CHANNELS 3 Xrotation Yrotation Zrotation
					End Site
					{
						OFFSET 0.000000 -5.044995 -1.291870
					}
				}
			}
		}
	}
}
MOTION
Frames: 14
Frame Time: 0.016667
0.000000 -0.000004 81.649483 -5.826342 0.000000 -0.000000 11.116424 0.000000 -0.000000 -5.290081 0.000000 -0.000000 -0.000000 0.000000 -0.000000 -0.000000 0.000000 -0.000000 12.665070 0.000000 -0.000000 0.575450 0.000000 -0.000000 -0.000000 0.000000 -0.000000 -0.000000 0.000000 -0.000000 0.000000 -0.000000 2.337306 0.000000 0.000000 -2.337305 -0.000000 0.000000 -0.000000 -0.000000 0.000000 -0.000000 0.000000 0.000000 -2.337306 0.000000 -0.000000 2.337305 8.578828 -0.000001 0.000000 1.905768 -0.000000 0.000000 -4.658254 0.000000 0.000000 -0.000000 -0.000000 -0.000000 8.578828 -0.000001 0.000000 1.905768 -0.000000 0.000000 -4.658254 -0.000000 -0.000000 -0.000000 -0.000000 -0.000000 
-11.118924 -5.651608 83.066666 2.343670 5.197551 -115.007996 1.556865 0.002509 0.270985 0.691753 0.000331 0.120742 0.691754 0.000331 0.120744 0.518815 0.000111 0.090557 18.721800 0.134581 -0.812274 -1.411757 0.509212 -1.439965 0.272268 -9.816999 -0.978955 5.883208 -80.904458 6.123148 5.405816 1.190387 1.073742 -2.421169 2.482365 2.374558 -0.705168 9.964899 -0.709345 10.829307 80.729353 -9.366604 4.850005 0.819429 2.386606 -6.419968 8.009991 16.462315 7.855401 0.151895 0.920108 2.375251 0.171276 -0.758082 -4.218521 0.228929 0.350893 -0.151889 -0.246643 -0.000117 7.529820 0.430758 2.294841 2.263146 0.132181 0.284087 -4.162512 -0.502743 1.359442 0.027352 0.050075 -0.000867 
-11.120141 -5.650576 83.066338 2.349306 5.203064 -115.036710 1.555683 0.005788 0.269214 0.691098 0.001485 0.120287 0.691098 0.001485 0.120287 0.518324 0.000978 0.090216 18.767903 0.134338 -0.813951 -1.326122 0.508803 -1.443259 0.276721 -9.826795 -0.982486 5.814777 -80.896064 6.059425 5.425839 1.191449 1.077544 -2.416238 2.487363 2.384340 -0.701894 9.967432 -0.710357 10.683473 80.736934 -9.217903 4.843408 0.811509 2.387606 -6.395431 8.008153 16.451062 7.863924 0.153817 0.927827 2.368883 0.172169 -0.756581 -4.216663 0.224517 0.366762 -0.118479 -0.195527 -0.000218 7.539770 0.434795 2.300060 2.265194 0.130405 0.300004 -4.166776 -0.502950 1.363562 0.021507 0.039715 -0.000879 
-11.122345 -5.653939 83.064583 2.354300 5.206398 -115.063853 1.554920 0.010049 0.268594 0.690661 0.002829 0.120257 0.690662 0.002829 0.120257 0.517998 0.001985 0.090199 18.811591 0.133540 -0.810865 -1.245025 0.505869 -1.438020 0.286169 -9.836532 -0.984771 5.770836 -80.897157 6.028554 5.442258 1.202413 1.076097 -2.414887 2.487517 2.392954 -0.699075 9.971391 -0.707943 10.554245 80.738184 -9.090917 4.850949 0.802155 2.389242 -6.374171 8.008562 16.430765 7.867925 0.157693 0.936943 2.366592 0.170120 -0.752192 -4.217519 0.219835 0.370738 -0.090764 -0.153868 -0.000396 7.546131 0.436655 2.303384 2.269473 0.129664 0.313122 -4.172992 -0.502912 1.358820 0.018026 0.031552 -0.001505 
-11.124622 -5.657148 83.062462 2.359374 5.209026 -115.088524 1.556100 0.015612 0.268366 0.691009 0.005357 0.120483 0.691009 0.005357 0.120484 0.518257 0.003882 0.090368 18.850993 0.129447 -0.807412 -1.171933 0.496850 -1.433154 0.293105 -9.848841 -0.988341 5.801216 -80.900039 6.076906 5.445067 1.215537 1.069402 -2.411750 2.497371 2.409432 -0.706541 9.973986 -0.701994 10.489701 80.731566 -9.021188 4.853704 0.798043 2.387231 -6.341722 7.997773 16.395577 7.871768 0.160817 0.948734 2.363927 0.171081 -0.750617 -4.218108 0.213011 0.377153 -0.068549 -0.121237 -0.000060 7.553210 0.441299 2.307384 2.270478 0.129661 0.325110 -4.177724 -0.506396 1.369398 0.015756 0.024492 -0.001293 
-11.127111 -5.662998 83.060547 2.361248 5.209655 -115.114697 1.559282 0.022067 0.272316 0.692497 0.008286 0.122336 0.692497 0.008286 0.122340 0.519375 0.006076 0.091761 18.884647 0.124040 -0.806846 -1.109476 0.486424 -1.433967 0.289369 -9.863935 -1.000153 5.888718 -80.891802 6.179885 5.451546 1.222204 1.061840 -2.409107 2.521632 2.443333 -0.718432 9.981818 -0.701861 10.454684 80.718206 -8.980781 4.846765 0.794286 2.379318 -6.307387 7.984027 16.361390 7.864817 0.167564 0.964374 2.374798 0.171112 -0.749741 -4.224667 0.205556 0.384815 -0.050521 -0.095073 -0.000283 7.557875 0.447115 2.313028 2.269255 0.129789 0.331786 -4.181403 -0.509923 1.384829 0.014513 0.019320 -0.001041 
-11.129532 -5.668621 83.058815 2.364653 5.210356 -115.135078 1.565613 0.028176 0.275467 0.695253 0.011151 0.123855 0.695253 0.011151 0.123851 0.521442 0.008223 0.092900 18.914672 0.117938 -0.807599 -1.053762 0.475192 -1.437391 0.277939 -9.881763 -1.010731 5.952002 -80.875710 6.252730 5.465656 1.220750 1.064159 -2.410126 2.549421 2.478773 -0.736092 9.983734 -0.701873 10.422538 80.704149 -8.946125 4.834338 0.795067 2.368106 -6.277429 7.977552 16.342577 7.860370 0.171776 0.967440 2.383202 0.172877 -0.744271 -4.227864 0.200025 0.395817 -0.038068 -0.076622 -0.000247 7.563294 0.454053 2.313178 2.266514 0.127507 0.343498 -4.183218 -0.513867 1.401311 0.013302 0.015102 -0.000541 
-11.133834 -5.675861 83.057266 2.364427 5.207664 -115.150323 1.573680 0.035158 0.280115 0.698552 0.014250 0.125893 0.698551 0.014250 0.125892 0.523916 0.010544 0.094437 18.940857 0.110875 -0.809902 -1.005174 0.462743 -1.443949 0.262575 -9.901897 -1.022641 6.001306 -80.855376 6.308685 5.475625 1.214274 1.072891 -2.419690 2.570456 2.516283 -0.760573 9.990019 -0.706684 10.396620 80.681528 -8.920462 4.818873 0.795570 2.357297 -6.253667 7.978312 16.338624 7.853153 0.177350 0.972064 2.391468 0.175085 -0.748121 -4.233285 0.194064 0.404909 -0.027386 -0.062452 0.000047 7.564845 0.458483 2.309436 2.262667 0.131202 0.351598 -4.183147 -0.518207 1.402674 0.011433 0.010140 -0.000986 
-11.138644 -5.682317 83.056114 2.362001 5.204585 -115.159640 1.576982 0.040495 0.283238 0.699854 0.016991 0.127065 0.699854 0.016991 0.127064 0.524894 0.012598 0.095321 18.968897 0.106294 -0.812183 -0.953115 0.454795 -1.449674 0.251816 -9.921496 -1.030539 6.013285 -80.838697 6.322550 5.465006 1.211340 1.084207 -2.422107 2.595667 2.556582 -0.787437 10.003393 -0.702511 10.349406 80.658257 -8.866073 4.806341 0.794643 2.344529 -6.216054 7.975945 16.332517 7.847318 0.183792 0.976157 2.395330 0.178268 -0.750731 -4.236729 0.187364 0.415237 -0.018827 -0.050971 0.000818 7.567435 0.469246 2.305536 2.254482 0.129659 0.363411 -4.180597 -0.522945 1.410924 0.009582 0.006904 -0.001140 
-11.144576 -5.690785 83.055260 2.358653 5.200793 -115.164749 1.581414 0.046713 0.286744 0.701893 0.019889 0.128143 0.701893 0.019889 0.128142 0.526424 0.014769 0.096133 18.993506 0.100542 -0.813934 -0.907454 0.444576 -1.454786 0.232719 -9.951711 -1.037769 5.940197 -80.816970 6.251351 5.443399 1.215377 1.091378 -2.421513 2.626847 2.602484 -0.827786 10.020857 -0.695370 10.285240 80.626510 -8.792218 4.793300 0.796014 2.338903 -6.156935 7.966437 16.311289 7.840418 0.191658 0.987465 2.400049 0.179302 -0.764115 -4.239908 0.181243 0.419093 -0.012750 -0.042125 0.001410 7.571165 0.479496 2.301917 2.240294 0.127390 0.375474 -4.175764 -0.525839 1.406137 0.009495 0.004029 -0.001760 
-11.149105 -5.698476 83.054382 2.356026 5.195773 -115.163519 1.586270 0.052222 0.288491 0.704184 0.022697 0.128237 0.704185 0.022697 0.128236 0.528144 0.016875 0.096204 19.015931 0.095428 -0.813423 -0.865851 0.434824 -1.455551 0.205206 -9.979816 -1.058822 5.858678 -80.799881 6.172618 5.428610 1.224495 1.088416 -2.433312 2.676905 2.670866 -0.860940 10.038630 -0.695888 10.163610 80.599921 -8.665603 4.780352 0.790643 2.328573 -6.088484 7.950584 16.280646 7.828798 0.196968 1.000972 2.412326 0.180595 -0.784941 -4.246333 0.176731 0.424839 -0.008188 -0.036507 0.002099 7.573131 0.486516 2.297667 2.226319 0.126899 0.379465 -4.170994 -0.530037 1.392239 0.010359 0.001944 -0.001600 
-11.152573 -5.705131 83.053406 2.352128 5.190481 -115.153656 1.591810 0.055294 0.288289 0.706724 0.024542 0.127566 0.706723 0.024542 0.127567 0.530049 0.018258 0.095703 19.035939 0.092589 -0.812075 -0.828741 0.428982 -1.454045 0.175411 -10.007536 -1.077370 5.742828 -80.779691 6.063274 5.424097 1.236662 1.076544 -2.446150 2.741865 2.744255 -0.885617 10.062335 -0.702876 10.067049 80.569854 -8.570521 4.755510 0.784406 2.315623 -6.025588 7.937467 16.254901 7.817077 0.199222 1.008198 2.424779 0.184536 -0.807214 -4.253382 0.173879 0.431326 -0.004634 -0.033215 0.002797 7.571097 0.491690 2.289063 2.216786 0.128437 0.379205 -4.168063 -0.533752 1.396404 0.011835 -0.000622 -0.001341 
-11.155262 -5.712443 83.052315 2.350912 5.184424 -115.141335 1.604726 0.056953 0.287387 0.712682 0.025288 0.126397 0.712682 0.025288 0.126400 0.534517 0.018819 0.094827 19.047670 0.091197 -0.809251 -0.807012 0.425409 -1.449363 0.134400 -10.029519 -1.078803 5.636324 -80.767506 5.955094 5.405934 1.257948 1.075457 -2.446445 2.770965 2.778169 -0.933777 10.080836 -0.693659 10.046236 80.542663 -8.546569 4.746223 0.778636 2.307021 -5.978418 7.927535 16.230558 7.804330 0.200310 1.004444 2.439083 0.186125 -0.816038 -4.260565 0.173407 0.430986 -0.002064 -0.031586 0.002732 7.566805 0.492452 2.291139 2.211164 0.131504 0.367511 -4.167971 -0.537839 1.396364 0.014589 -0.002961 -0.001205 
-11.160045 -5.720307 83.051598 2.347510 5.179115 -115.129013 1.621314 0.056345 0.283884 0.719873 0.024992 0.124301 0.719873 0.024992 0.124301 0.539910 0.018597 0.093254 19.053687 0.093524 -0.803882 -0.795863 0.427879 -1.438822 0.077890 -10.047511 -1.075909 5.601096 -80.743382 5.900794 5.381095 1.256220 1.080651 -2.458152 2.799523 2.815056 -0.990863 10.107544 -0.678553 10.038621 80.510875 -8.539514 4.742760 0.778716 2.305616 -5.948539 7.912516 16.201292 7.795477 0.204904 0.992913 2.447843 0.188337 -0.812047 -4.265852 0.171348 0.428722 -0.000375 -0.029837 0.002802 7.564301 0.499699 2.297408 2.203243 0.127180 0.356994 -4.166306 -0.537894 1.379105 0.015728 -0.005174 -0.001667 
